# xmcd
#
# Track frame offsets:
#	150
#	22966
#	39043
#	65837
#	74354
#	88996
#	110015
#	126227
#	147396
#	164458
#	176512
#
# Disc length: 2687 seconds
# Revision: 3
# Processed by: cddbd v1.5.2PL0 Copyright (c) Steve Scherf et al.
# Submitted via: dBpowerAMP V12.0
#
DISCID=9e0a7d0b
DTITLE=The Biscuit Burners - Take Me Home
DYEAR=2008
DGENRE=Country
TTITLE0=The Real You
TTITLE1=Take Me Home
TTITLE2=Sujan Re
TTITLE3=Grasshopper (A.K.A. Odessa Martin and Wood)
TTITLE4=Sweet Red Wine
TTITLE5=Drank Up All the Whiskey
TTITLE6=Annie Oakley
TTITLE7=Monkey Wrench Gang
TTITLE8=Rockville
TTITLE9=Country Girl
TTITLE10=You're Who I Want
EXTD=
EXTT0=
EXTT1=
EXTT2=
EXTT3=
EXTT4=
EXTT5=
EXTT6=
EXTT7=
EXTT8=
EXTT9=
EXTT10=
PLAYORDER=
